<?xml version="1.0" standalone="no"?>
<!DOCTYPE svg PUBLIC "-//W3C//DTD SVG 20010904//EN"
 "http://www.w3.org/TR/2001/REC-SVG-20010904/DTD/svg10.dtd">
<svg version="1.0" xmlns="http://www.w3.org/2000/svg"
 width="300.000000pt" height="300.000000pt" viewBox="0 0 300.000000 300.000000"
 preserveAspectRatio="xMidYMid meet">
<metadata>
Created by potrace 1.10, written by Peter Selinger 2001-2011
</metadata>
<g transform="translate(0.000000,300.000000) scale(0.100000,-0.100000)"
fill="#000000" stroke="none">
<path d="M1625 2915 c-36 -18 -102 -62 -148 -96 -82 -63 -82 -63 -202 -85
-315 -57 -584 -196 -773 -399 -244 -261 -366 -631 -332 -1008 32 -368 174
-700 390 -916 162 -162 408 -287 662 -336 125 -25 352 -30 473 -12 438 68 797
332 998 732 155 311 185 710 76 1044 -109 337 -377 644 -694 796 -89 43 -228
91 -290 101 l-45 6 0 73 c0 81 -10 119 -34 128 -9 4 -45 -9 -81 -28z m86 -123
l5 -116 40 -30 c21 -17 66 -57 100 -88 l61 -58 136 0 c132 0 137 -1 137 -21 0
-25 -42 -133 -83 -213 l-31 -59 12 -96 c7 -53 12 -113 12 -134 0 -38 2 -40 53
-51 39 -9 24 -26 -24 -26 -34 0 -39 -3 -39 -23 0 -15 11 -28 35 -41 19 -11 35
-23 35 -28 0 -11 -5 -10 -47 7 -20 8 -37 14 -38 13 -1 -2 -15 -32 -32 -68 -51
-112 -165 -216 -320 -294 -83 -41 -109 -36 -255 48 -71 41 -130 70 -133 66
-17 -28 -39 -108 -54 -195 l-17 -100 -60 -33 c-66 -36 -79 -37 -200 -3 -40 11
-93 23 -119 27 l-48 7 8 -119 c4 -66 11 -153 14 -194 4 -46 1 -104 -7 -150 -8
-45 -12 -124 -10 -197 l4 -122 -53 -11 c-29 -6 -53 -16 -53 -21 0 -5 29 -9 65
-9 36 0 65 -3 65 -7 0 -4 -21 -26 -47 -50 -38 -33 -44 -42 -28 -43 11 0 36 10
55 21 32 20 35 20 45 4 32 -55 98 -136 137 -168 42 -35 156 -97 177 -97 6 0
11 -5 11 -11 0 -6 -8 -8 -17 -5 -337 105 -457 170 -619 330 -137 136 -231 293
-303 503 -165 483 -90 977 200 1327 114 139 240 234 421 321 130 62 245 97
396 122 101 16 111 20 167 63 121 94 222 155 235 143 3 -3 8 -57 11 -121z m99
-92 c8 -5 18 -8 23 -8 33 -1 87 -16 87 -25 0 -5 3 -8 6 -4 17 16 335 -151 364
-192 3 -4 16 -15 29 -24 90 -61 245 -243 310 -362 18 -33 36 -64 40 -70 13
-17 73 -166 77 -193 3 -14 7 -29 10 -34 3 -5 8 -21 10 -36 3 -15 12 -56 20
-90 8 -35 14 -76 14 -90 0 -15 2 -87 4 -161 9 -390 -162 -769 -465 -1031 -72
-62 -208 -150 -237 -154 -7 -2 -17 -7 -20 -12 -12 -18 -208 -90 -271 -100 -19
-3 -46 -10 -59 -15 -60 -23 -334 -29 -452 -10 -44 7 -67 16 -77 31 -8 11 -42
34 -75 51 -73 37 -154 111 -204 186 -20 30 -42 57 -49 59 -7 3 -11 13 -8 23 2
9 -3 23 -11 30 -11 9 -13 18 -6 30 5 10 5 33 1 52 -9 41 -6 161 5 244 10 70
10 186 -1 341 l-8 112 44 -5 c24 -3 50 -10 57 -15 6 -6 12 -8 12 -5 0 3 30 -3
67 -13 78 -22 79 -21 165 21 70 34 88 57 88 112 1 37 23 140 38 179 l11 28 58
-32 c32 -17 78 -44 103 -61 35 -23 59 -31 110 -35 59 -4 71 -1 124 28 148 79
285 205 326 297 18 42 21 44 50 38 30 -7 60 7 60 26 0 5 -11 19 -25 31 -31 27
-32 38 -2 38 12 0 28 9 34 19 10 15 9 22 -5 33 -9 8 -24 18 -33 21 -17 6 -27
64 -41 245 -1 7 20 57 47 112 26 55 50 121 53 147 7 68 -4 73 -160 73 l-128 0
-47 46 c-27 25 -64 58 -83 73 -40 30 -50 41 -50 59 0 13 37 8 70 -8z"/>
<path d="M1384 2364 c-21 -49 -27 -89 -20 -118 8 -34 59 -60 100 -52 35 7 106
72 106 97 0 32 -25 26 -62 -13 -28 -31 -42 -39 -65 -36 -23 2 -29 8 -31 35 -2
18 4 48 13 67 9 19 14 40 10 45 -13 22 -36 10 -51 -25z"/>
<path d="M1164 2345 c-7 -17 94 -137 110 -132 21 7 10 38 -33 92 -44 55 -67
67 -77 40z"/>
<path d="M1092 2223 c3 -19 38 -30 106 -34 41 -3 47 -1 47 16 0 23 -29 33
-103 34 -45 1 -53 -2 -50 -16z"/>
<path d="M1823 2123 c-8 -21 -18 -57 -21 -79 -6 -54 21 -84 76 -84 48 0 74 18
97 70 16 36 17 43 4 51 -14 9 -20 4 -62 -56 -39 -55 -85 -18 -60 50 21 56 21
79 0 83 -12 3 -22 -8 -34 -35z"/>
<path d="M1524 2116 c-7 -19 3 -65 18 -83 6 -7 23 -13 39 -13 17 0 38 -10 53
-25 30 -30 93 -35 103 -9 6 17 -15 37 -29 28 -18 -11 -48 8 -48 30 0 36 -19
47 -47 29 -27 -18 -40 -10 -45 27 -3 28 -35 40 -44 16z"/>
<path d="M1586 981 c-15 -16 -15 -24 -4 -65 19 -70 0 -80 -50 -26 -33 36 -44
42 -65 36 -40 -10 -44 -42 -10 -90 65 -92 141 -109 196 -44 36 43 43 72 28
127 -20 76 -59 102 -95 62z m60 -36 c23 -55 18 -100 -14 -136 -18 -21 -37 -31
-55 -31 -32 0 -86 38 -109 80 -16 27 -16 31 -2 43 13 11 21 6 56 -34 22 -26
46 -47 54 -47 7 0 21 12 31 26 16 25 16 29 1 72 -9 25 -15 49 -12 54 12 19 36
6 50 -27z"/>
<path d="M1860 882 c-33 -32 -60 -63 -60 -69 0 -5 16 -32 36 -58 l37 -47 61 7
c69 7 106 26 106 55 0 29 -44 54 -81 46 l-31 -6 26 31 c14 17 26 37 26 45 0
16 -35 54 -50 54 -6 0 -38 -26 -70 -58z m96 17 c8 -14 -85 -109 -108 -109 -32
0 -19 33 30 77 49 44 66 51 78 32z m54 -114 c19 -23 5 -32 -65 -44 -70 -13
-88 -9 -83 17 2 11 22 20 63 28 33 6 63 12 66 13 4 0 12 -6 19 -14z"/>
<path d="M1126 791 c-15 -17 -16 -24 -5 -59 6 -22 9 -48 5 -58 -6 -15 -9 -15
-31 6 -14 13 -27 31 -31 42 -14 46 -78 42 -90 -6 -11 -46 77 -144 139 -153 30
-5 95 37 108 69 37 89 -41 219 -95 159z m61 -27 c10 -16 17 -46 17 -77 0 -42
-4 -53 -28 -73 -15 -13 -40 -24 -56 -24 -48 0 -136 91 -123 128 8 23 38 12 54
-20 8 -17 27 -40 41 -51 51 -38 88 18 57 87 -12 26 -7 56 10 56 6 0 18 -12 28
-26z"/>
<path d="M1441 724 c-11 -14 -22 -30 -25 -37 -5 -9 -7 -9 -12 1 -14 30 -78 6
-88 -33 -5 -19 -13 -25 -35 -25 -15 0 -36 -9 -46 -20 -16 -17 -16 -24 -5 -44
22 -43 80 -48 130 -11 19 14 45 24 59 23 36 -2 68 17 86 52 22 43 19 86 -7
104 -30 21 -33 20 -57 -10z m52 -39 c-5 -63 -48 -100 -89 -77 -14 8 -23 3 -42
-19 -20 -24 -32 -29 -68 -29 -32 0 -46 5 -51 16 -8 21 15 35 45 27 25 -6 52
12 52 36 0 9 5 23 10 31 8 13 13 12 40 -3 37 -22 60 -16 60 16 0 29 9 39 30
34 10 -2 14 -12 13 -32z"/>
</g>
</svg>
